<svg version="1.1" id="svg150" xmlns="http://www.w3.org/2000/svg" x="0" y="0" viewBox="0 0 2000 893.3" style="enable-background:new 0 0 2000 893.3" xml:space="preserve"><style>.st0,.st1,.st2,.st3{fill-rule:evenodd;clip-rule:evenodd;fill:#fddb00}.st1,.st2,.st3{fill:#01d101}.st2,.st3{fill:#4e4e4e}.st3{fill:#193dff}.st4{fill:red}.st4,.st5{fill-rule:evenodd;clip-rule:evenodd}</style><g id="g148" transform="matrix(.77438 0 0 .77438 -1791.426 -230.692)"><g id="g146" transform="translate(1982.62)"><path id="path2" class="st0" d="m1475.7 551.9 377.3 629.5h-754.5l377.2-629.5z"/><g id="g6" transform="matrix(1.08397 0 0 1 -324.434 0)"><path id="path4" class="st1" d="m1046 551.9 377.3 629.5H1046V551.9z"/></g><g id="g10" transform="translate(-1982.62)"><path id="path8" class="st2" d="m3138.6 1085.3-57.5 96H3201l-62.4-96z"/></g><g id="g14" transform="translate(31.164 57.068) scale(1.20387)"><path id="path12" class="st3" d="M1199.9 742.2c105.8 0 191.7 85.9 191.7 191.7h-383.4c0-105.8 85.9-191.7 191.7-191.7z"/></g><g id="g18" transform="translate(-1982.62)"><path id="path16" class="st3" d="M3039.4 551.9c104.1 0 188.6 84.5 188.6 188.6s-84.5 188.6-188.6 188.6l-189.7-36.9-57.7-340.3h247.4z"/></g><g id="g22" transform="matrix(1.02029 0 0 .99172 -29.368 5.752)"><path id="rect20" class="st3" d="M2670.3 971.4h214v214h-214z"/></g><g id="g26" transform="matrix(1.02029 0 0 .99172 -111.71 5.752)"><path id="rect24" class="st2" d="M2537.1 971.4h214v214h-214z"/></g><g id="g30" transform="matrix(1.02029 0 0 1.94506 -111.71 -736.926)"><path id="rect28" class="st0" d="M2537.1 663.1h214v214h-214z"/></g><g id="g34" transform="matrix(1.02029 0 0 2.93679 -208.116 -1346.21)"><path id="rect32" class="st1" d="M2381 646.7h214v214h-214z"/></g><g id="g38" transform="translate(-1982.62)"><path id="path36" class="st0" d="M3879.3 1142.3c-49.5-36.5-81.6-95.2-81.6-161.4s32.1-124.9 81.6-161.4v-39h118.8c110.6 0 200.4 89.8 200.4 200.4s-89.8 200.4-200.4 200.4h-118.8v-39z"/></g><g id="g42" transform="translate(-1982.62)"><path id="path40" class="st1" d="m3946.7 741.4-7.7 39.1v44.8h-77.6c-75.4 0-136.7-61.3-136.7-136.7 0-75.4 61.3-136.7 136.7-136.7h77.6l7.7 39.1v150.4z"/></g><g id="g46" transform="matrix(1 0 0 1.00463 0 -2.516)"><path id="rect44" class="st3" d="M1956.4 551.8H2184v227.6h-227.6z"/></g><g id="g50" transform="matrix(.94166 0 0 1.56462 -17.443 -155.918)"><path id="rect48" class="st4" d="M1868.5 627.1h227.6v227.6h-227.6z"/></g><g id="g54" transform="translate(-1982.62)"><path id="path52" class="st4" d="M2603.4 804.1c104.1 0 188.6 84.5 188.6 188.6s-84.5 188.6-188.6 188.6h-290V804.1h290z"/></g><g id="g58" transform="translate(-1982.62)"><path id="path56" class="st3" d="M2583.4 551.9c69.6 0 126.1 56.5 126.1 126.1s-56.5 126.1-126.1 126.1H2432l90.6-252.2h60.8z"/></g><g id="g88" transform="translate(-2658.59 -1693.18) scale(5.57805)"><path id="path60" d="M584.4 366.8v4.6h5.8c-.5 1.4-2 2.5-4.3 2.5-3.3 0-5.5-2.4-5.5-5.6 0-3.3 2.3-5.8 5.4-5.8 2 0 3.8 1 4.7 2.7l5-3c-2-3.3-5.7-5.4-9.6-5.4-6.3 0-11.3 5-11.3 11.4 0 6.3 5 11.3 11.4 11.3 6 0 10.5-4.4 10.5-11.1v-1.7l-12.1.1z"/><path id="path62" d="M616.4 379.6c6.3 0 11.3-5 11.3-11.3s-5-11.3-11.3-11.3c-6.3 0-11.4 5-11.4 11.3s5 11.3 11.4 11.3zm0-6c-2.9 0-5.1-2.3-5.1-5.3 0-3.1 2.2-5.3 5.1-5.3 2.8 0 5 2.3 5 5.3s-2.2 5.3-5 5.3z"/><path id="path64" d="m649.4 357.5-5.1 13.3-5-13.3H633l8.4 21.6h5.8l8.5-21.6h-6.3z"/><path id="path66" d="M678.6 362.7v-5.3h-15.5V379h15.5v-5.3H669v-3.2h6.4V366H669v-3.2l9.6-.1z"/><path id="path68" d="M699.9 379.1h6.5l-4.8-8.3c2.3-1.2 3.8-3.5 3.8-6.3 0-4-3.2-7-7.5-7h-10.5v21.6h5.8v-7.5h2.4l4.3 7.5zm-6.7-16.5h4.1c1.4 0 2.2 1 2.2 2s-.9 2-2.2 2h-4.1v-4z"/><path id="path70" d="M727.9 357.5v11.4l-8.7-11.4h-4.9v21.6h5.8v-11.4l8.7 11.4h4.9v-21.6h-5.8z"/><path id="path72" d="M753.3 379.6c6.3 0 11.3-5 11.3-11.3s-5-11.3-11.3-11.3c-6.3 0-11.4 5-11.4 11.3s5 11.3 11.4 11.3zm0-6c-2.9 0-5.1-2.3-5.1-5.3 0-3.1 2.2-5.3 5.1-5.3 2.8 0 5 2.3 5 5.3s-2.2 5.3-5 5.3z"/><path id="path74" d="M802.5 362.6v-5.2H787V379h5.9v-7.9h6.4v-4.9h-6.4v-3.7h9.6z"/><path id="path76" d="M826.5 362.7v-5.3H811V379h15.5v-5.3h-9.6v-3.2h6.4V366h-6.4v-3.2l9.6-.1z"/><path id="path78" d="M844.2 357.5h-8.8v21.6h8.8c6.6 0 11.5-4.6 11.5-10.8 0-6.2-4.9-10.8-11.5-10.8zm-.3 16h-2.6v-10.4h2.6c3.4 0 5.8 2 5.8 5.2 0 3.1-2.4 5.2-5.8 5.2z"/><path id="path80" d="M879.5 362.7v-5.3H864V379h15.5v-5.3h-9.6v-3.2h6.4V366h-6.4v-3.2l9.6-.1z"/><path id="path82" d="M900.8 379.1h6.5l-4.8-8.3c2.3-1.2 3.8-3.5 3.8-6.3 0-4-3.2-7-7.5-7h-10.5v21.6h5.8v-7.5h2.4l4.3 7.5zm-6.7-16.5h4.1c1.4 0 2.2 1 2.2 2s-.9 2-2.2 2h-4.1v-4z"/><path id="path84" d="M931.2 379.1h6l-9.1-21.6h-5.5l-9 21.6h6.1l1.5-3.7h8.6l1.4 3.7zm-8-8.9 2.2-5.3 2.2 5.3h-4.4z"/><path id="path86" d="M950.8 373.5v-16.1h-6.1V379h15.2v-5.6h-9.1z"/></g><g id="g92" transform="translate(-1982.62)"><path id="path90" class="st2" d="m3724.7 996.3 110.9 185.1h-110.9V996.3z"/></g><g id="g128" transform="translate(-1704.56 -761.458) scale(4.10943)"><path id="path94" class="st5" d="M558.4 528.9c1.2 0 2.2-.2 3-.7.8-.5 1.4-1.1 1.9-1.8s.8-1.6 1-2.6c.2-1 .3-2 .3-3v-11.5h3.6v11.5c0 1.5-.2 3-.5 4.4-.4 1.4-.9 2.6-1.7 3.6s-1.8 1.8-3 2.4c-1.2.6-2.7.9-4.5.9-1.8 0-3.3-.3-4.6-.9-1.2-.6-2.2-1.5-3-2.5-.8-1-1.3-2.3-1.7-3.6-.3-1.4-.5-2.8-.5-4.2v-11.5h3.6v11.5c0 1 .1 2 .3 3s.5 1.8 1 2.6 1.1 1.4 1.9 1.8c.8.4 1.7.6 2.9.6z"/><path id="path96" class="st5" d="M583.3 516.1V532h-3.6v-22.6h2.8l12.9 16.3v-16.3h3.6V532h-3l-12.7-15.9z"/><path id="rect98" class="st5" d="M610.9 509.4h3.6V532h-3.6z"/><path id="path100" class="st5" d="M633 509.4h3.1L645 532h-3.8l-2.4-6.1h-8.7l-2.4 6.1H624l9-22.6zm5.1 13.8-3.6-9.7-3.8 9.7h7.4zm-1.6-16.7c-.5 0-.9-.1-1.3-.2s-.7-.3-1-.5c-.3-.2-.6-.3-.9-.5-.3-.1-.6-.2-1-.2s-.6.1-.8.2-.4.3-.5.5c-.1.2-.2.4-.2.5v.3h-2c0-.2.1-.5.2-.9s.3-.8.6-1.2c.3-.4.6-.8 1-1.1.4-.3 1-.5 1.6-.5.5 0 .9.1 1.2.2.4.1.7.3 1 .5s.6.3.9.5c.3.1.7.2 1 .2.4 0 .7-.1.9-.2.2-.1.4-.3.5-.5.1-.2.2-.4.2-.5v-.3h2c0 .1-.1.4-.2.8s-.3.8-.6 1.2c-.3.4-.6.8-1.1 1.1-.2.4-.8.6-1.5.6z"/><path id="path102" class="st5" d="M663.1 532.1c-1.6 0-3.1-.3-4.4-1-1.3-.6-2.5-1.5-3.4-2.6-1-1.1-1.7-2.3-2.2-3.7-.5-1.4-.8-2.8-.8-4.2 0-1.5.3-2.9.8-4.3.6-1.4 1.3-2.6 2.3-3.7 1-1.1 2.1-1.9 3.4-2.5 1.3-.6 2.8-.9 4.3-.9 1.6 0 3.1.3 4.4 1 1.3.7 2.5 1.5 3.4 2.6.9 1.1 1.7 2.3 2.2 3.7.5 1.4.8 2.8.8 4.2 0 1.5-.3 2.9-.8 4.3s-1.3 2.6-2.3 3.6-2.1 1.9-3.5 2.5c-1.2.7-2.6 1-4.2 1zm-7.2-11.4c0 1.1.2 2.1.5 3.1s.8 1.9 1.4 2.6c.6.8 1.4 1.4 2.3 1.8.9.5 1.9.7 3 .7s2.2-.2 3-.7 1.6-1.1 2.2-1.9 1.1-1.7 1.4-2.6c.3-1 .5-2 .5-3 0-1.1-.2-2.1-.5-3.1s-.8-1.9-1.4-2.6-1.4-1.4-2.3-1.8-1.9-.7-2.9-.7c-1.1 0-2.2.2-3.1.7s-1.6 1.1-2.3 1.9-1.1 1.6-1.4 2.6c-.2 1-.4 2-.4 3z"/><path id="path104" class="st5" d="M714.6 528.8v3.1h-15.5v-22.6h15.2v3.1h-11.6v6.4h10.1v3h-10.1v6.9h11.9z"/><path id="path106" class="st5" d="M739.7 532v-22.6h9.8c1 0 2 .2 2.8.6.9.4 1.6 1 2.2 1.7.6.7 1.1 1.5 1.4 2.4s.5 1.8.5 2.7c0 .8-.1 1.5-.3 2.2s-.5 1.3-.9 1.9c-.4.6-.8 1.1-1.4 1.5-.6.4-1.2.8-1.8 1l5.3 8.6h-4l-4.9-7.9h-5.2v7.9h-3.5zm3.5-11h6.2c.5 0 1-.1 1.4-.3.4-.2.8-.5 1.1-.9s.5-.8.7-1.4c.2-.5.3-1 .3-1.6 0-.6-.1-1.1-.3-1.6s-.5-1-.8-1.3c-.3-.4-.7-.7-1.1-.9-.4-.2-.9-.3-1.4-.3h-6l-.1 8.3z"/><path id="path108" class="st5" d="M783 528.8v3.1h-15.5v-22.6h15.2v3.1H771v6.4h10.1v3H771v6.9h12z"/><path id="path110" class="st5" d="M791.5 520.5c0-1.4.2-2.7.7-4.1.5-1.3 1.2-2.6 2.1-3.6.9-1.1 2.1-1.9 3.5-2.6 1.4-.7 2.9-1 4.6-1 2.1 0 3.8.5 5.3 1.4 1.5.9 2.6 2.1 3.3 3.6l-2.8 1.9c-.3-.7-.7-1.3-1.1-1.7-.4-.5-.9-.8-1.5-1.1-.5-.3-1.1-.5-1.7-.6-.6-.1-1.1-.2-1.7-.2-1.2 0-2.2.2-3.1.7s-1.6 1.1-2.2 1.9c-.6.8-1.1 1.7-1.4 2.6-.3 1-.5 2-.5 2.9 0 1.1.2 2.2.5 3.1.4 1 .9 1.9 1.5 2.6.6.8 1.4 1.4 2.3 1.8s1.9.7 2.9.7c.6 0 1.1-.1 1.7-.2.6-.1 1.1-.4 1.7-.7.5-.3 1-.7 1.5-1.2s.8-1 1.1-1.7l3 1.7c-.4.8-.9 1.6-1.5 2.2-.7.6-1.4 1.2-2.2 1.6s-1.7.8-2.6 1c-.9.2-1.8.3-2.7.3-1.6 0-3-.3-4.4-1-1.3-.7-2.4-1.6-3.4-2.7s-1.7-2.3-2.2-3.7c-.4-1-.7-2.4-.7-3.9z"/><path id="path112" class="st5" d="M830.7 532.1c-1.6 0-3.1-.3-4.4-1-1.3-.6-2.5-1.5-3.4-2.6-1-1.1-1.7-2.3-2.2-3.7-.5-1.4-.8-2.8-.8-4.2 0-1.5.3-2.9.8-4.3.6-1.4 1.3-2.6 2.3-3.7 1-1.1 2.1-1.9 3.4-2.5 1.3-.6 2.8-.9 4.3-.9 1.6 0 3.1.3 4.4 1 1.3.7 2.5 1.5 3.4 2.6s1.7 2.3 2.2 3.7.8 2.8.8 4.2c0 1.5-.3 2.9-.8 4.3s-1.3 2.6-2.3 3.6-2.1 1.9-3.5 2.5c-1.2.7-2.7 1-4.2 1zm-7.2-11.4c0 1.1.2 2.1.5 3.1s.8 1.9 1.4 2.6c.6.8 1.4 1.4 2.3 1.8.9.5 1.9.7 3 .7s2.2-.2 3-.7 1.6-1.1 2.2-1.9 1.1-1.7 1.4-2.6c.3-1 .5-2 .5-3 0-1.1-.2-2.1-.5-3.1s-.8-1.9-1.4-2.6-1.4-1.4-2.3-1.8-1.9-.7-2.9-.7c-1.1 0-2.2.2-3.1.7s-1.6 1.1-2.3 1.9-1.1 1.6-1.4 2.6c-.3 1-.4 2-.4 3z"/><path id="path114" class="st5" d="M855.5 516.1V532H852v-22.6h2.8l12.9 16.3v-16.3h3.6V532h-3l-12.8-15.9z"/><path id="path116" class="st5" d="M896.5 514.7c-.2-.2-.5-.5-.9-.7-.4-.3-.9-.5-1.4-.7-.5-.2-1.1-.4-1.8-.6-.6-.1-1.3-.2-2-.2-1.5 0-2.6.3-3.3.8s-1.1 1.3-1.1 2.3c0 .6.1 1 .3 1.4.2.3.6.7 1 .9.5.3 1 .5 1.7.7.7.2 1.5.4 2.4.7 1.1.3 2.2.6 3.1.9.9.3 1.7.8 2.3 1.2.6.5 1.1 1.1 1.5 1.8.4.7.5 1.6.5 2.6 0 1.1-.2 2.1-.7 3s-1 1.5-1.8 2-1.6.9-2.6 1.1c-1 .2-2.1.4-3.2.4-1.7 0-3.4-.3-5-.8s-3-1.3-4.3-2.3l1.6-3.1c.3.3.7.6 1.2.9.5.3 1.1.7 1.8.9.7.3 1.4.5 2.2.7.8.2 1.6.3 2.5.3 1.4 0 2.5-.2 3.2-.7.8-.5 1.1-1.2 1.1-2.2 0-.6-.1-1-.4-1.4-.3-.4-.7-.7-1.2-1-.5-.3-1.2-.5-1.9-.8-.8-.2-1.6-.5-2.6-.7-1.1-.3-2.1-.6-2.9-.9-.8-.3-1.5-.7-2.1-1.2s-1-1-1.3-1.6c-.3-.6-.4-1.4-.4-2.3 0-1.1.2-2.1.6-2.9.4-.9 1-1.6 1.7-2.2s1.6-1 2.6-1.3c1-.3 2.1-.4 3.2-.4 1.5 0 2.9.2 4.2.7 1.3.5 2.4 1.1 3.4 1.8l-1.2 2.9z"/><path id="path118" class="st5" d="M925.8 512.5h-7.5V532h-3.6v-19.4h-7.5v-3.1h18.6v3z"/><path id="path120" class="st5" d="M935.6 532v-22.6h9.8c1 0 2 .2 2.8.6.9.4 1.6 1 2.2 1.7.6.7 1.1 1.5 1.4 2.4s.5 1.8.5 2.7c0 .8-.1 1.5-.3 2.2s-.5 1.3-.9 1.9c-.4.6-.8 1.1-1.4 1.5-.6.4-1.2.8-1.8 1l5.3 8.6h-4l-4.9-7.9h-5.2v7.9h-3.5zm3.6-11h6.2c.5 0 1-.1 1.4-.3.4-.2.8-.5 1.1-.9.3-.4.5-.8.7-1.4.2-.5.3-1 .3-1.6 0-.6-.1-1.1-.3-1.6s-.5-1-.8-1.3c-.3-.4-.7-.7-1.1-.9-.4-.2-.9-.3-1.4-.3h-6l-.1 8.3z"/><path id="path122" class="st5" d="M972.8 528.9c1.2 0 2.2-.2 3-.7.8-.5 1.4-1.1 1.9-1.8s.8-1.6 1-2.6c.2-1 .3-2 .3-3v-11.5h3.6v11.5c0 1.5-.2 3-.5 4.4-.4 1.4-.9 2.6-1.7 3.6-.8 1-1.8 1.8-3 2.4-1.2.6-2.7.9-4.5.9-1.8 0-3.3-.3-4.6-.9-1.2-.6-2.2-1.5-3-2.5-.8-1-1.3-2.3-1.7-3.6-.3-1.4-.5-2.8-.5-4.2v-11.5h3.6v11.5c0 1 .1 2 .3 3s.5 1.8 1 2.6 1.1 1.4 1.9 1.8c.8.4 1.8.6 2.9.6z"/><path id="path124" class="st5" d="M1029 509.4h3.1l8.9 22.6h-3.8l-2.4-6.1h-8.7l-2.4 6.1h-3.8l9.1-22.6zm5.2 13.8-3.6-9.7-3.8 9.7h7.4zm-1.7-16.7c-.5 0-.9-.1-1.3-.2s-.7-.3-1-.5c-.3-.2-.6-.3-.9-.5s-.6-.2-1-.2-.6.1-.8.2c-.2.1-.4.3-.5.5-.1.2-.2.4-.2.5v.3h-2c0-.2.1-.5.2-.9s.3-.8.6-1.2c.3-.4.6-.8 1-1.1.4-.3 1-.5 1.6-.5.5 0 .9.1 1.2.2.3.1.7.3 1 .5s.6.3.9.5c.3.1.7.2 1 .2s.7-.1.9-.2c.2-.1.4-.3.5-.5.1-.2.2-.4.2-.5v-.3h2c0 .1-.1.4-.2.8s-.3.8-.6 1.2c-.3.4-.6.8-1.1 1.1-.2.4-.8.6-1.5.6z"/><path id="path126" class="st5" d="M1059.1 532.1c-1.6 0-3.1-.3-4.4-1s-2.5-1.5-3.4-2.6c-1-1.1-1.7-2.3-2.2-3.7-.5-1.4-.8-2.8-.8-4.2 0-1.5.3-2.9.8-4.3.6-1.4 1.3-2.6 2.3-3.7 1-1.1 2.1-1.9 3.4-2.5 1.3-.6 2.8-.9 4.3-.9 1.6 0 3.1.3 4.4 1 1.3.7 2.5 1.5 3.4 2.6s1.7 2.3 2.2 3.7.8 2.8.8 4.2c0 1.5-.3 2.9-.8 4.3s-1.3 2.6-2.3 3.6c-1 1-2.1 1.9-3.5 2.5-1.2.7-2.6 1-4.2 1zm-7.1-11.4c0 1.1.2 2.1.5 3.1s.8 1.9 1.4 2.6c.6.8 1.4 1.4 2.3 1.8.9.5 1.9.7 3 .7s2.2-.2 3-.7c.9-.5 1.6-1.1 2.2-1.9s1.1-1.7 1.4-2.6c.3-1 .5-2 .5-3 0-1.1-.2-2.1-.5-3.1s-.8-1.9-1.4-2.6c-.6-.8-1.4-1.4-2.3-1.8-.9-.5-1.9-.7-2.9-.7-1.1 0-2.2.2-3.1.7s-1.6 1.1-2.3 1.9-1.1 1.6-1.4 2.6c-.3 1-.4 2-.4 3z"/></g><g id="g132" transform="translate(-1982.62)"><path id="path130" class="st5" d="M4400.1 1425.4c-5.9-.2-11.3-1.6-16.3-4.2-5.4-2.8-10.1-6.4-14-10.9-3.9-4.5-6.9-9.6-9.1-15.3-2.2-5.7-3.3-11.5-3.3-17.5 0-5.6 1-11.1 3-16.7 2-5.5 5-10.5 8.8-14.9 3.9-4.4 8.6-8 14.2-10.7 5.6-2.7 11.9-4.1 19-4.1 8.5 0 15.7 1.9 21.7 5.6 6 3.7 10.6 8.6 13.6 14.6l-11.5 7.7c-1.3-2.8-2.9-5.1-4.7-7.1-1.8-1.9-3.8-3.4-6-4.6-2.2-1.1-4.4-1.9-6.8-2.4-2.4-.5-4.6-.7-6.8-.7-4.9 0-9.2 1-12.8 2.9-3.7 2-6.7 4.6-9.2 7.8-2.5 3.2-4.4 6.8-5.6 10.9-1.3 4-1.9 8-1.9 12 0 4.5.7 8.8 2.2 12.9 1.5 4.1 3.6 7.7 6.2 10.9 2.7 3.1 5.8 5.6 9.5 7.5 3.7 1.9 7.7 2.8 12 2.8 2.3 0 4.6-.3 7-.8 2.4-.6 4.7-1.5 6.9-2.7 2.2-1.3 4.3-2.9 6.1-4.8 1.9-1.9 3.4-4.2 4.6-6.9l12.2 6.9c-1.5 3.5-3.6 6.6-6.3 9.2-2.7 2.7-5.8 4.9-9.1 6.7-3.4 1.8-7 3.2-10.8 4.2-2.1.5-4.3.9-6.4 1.2 4.2 5.7 10.9 11.9 6.9 19.7-5.6 11-22.9 5.3-28.3 2.9l3.6-8.2s9.8 7.2 16.3 2.4c6.5-4.4-.1-9.8-4.9-16.3z"/></g><g id="g136" transform="matrix(1 0 0 .62835 0 258.324)"><path id="rect134" class="st0" d="M330.8 840.5H551v628.4H330.8z"/></g><g id="g140" transform="matrix(1 0 0 .40133 0 273.834)"><path id="rect138" class="st1" d="M330.8 692.8H551v628.4H330.8z"/></g><g id="g144" transform="matrix(.64967 0 0 .59934 67.494 183.368)"><path id="path142" class="st0" d="m1142 614.8 377.3 629.5H1142V614.8z"/></g></g></g></svg>